<?xml version="1.0" encoding="UTF-8"?>
<svg xmlns="http://www.w3.org/2000/svg" viewBox="0 0 720 360" font-family="'Noto Sans CJK JP','PingFang SC','Microsoft YaHei',sans-serif">
  <defs>
    <marker id="arrow-red" viewBox="0 0 10 10" refX="9" refY="5" markerWidth="8" markerHeight="8" orient="auto-start-reverse">
      <path d="M0,0 L10,5 L0,10 z" fill="#d9534f"/>
    </marker>
    <marker id="arrow-blue" viewBox="0 0 10 10" refX="9" refY="5" markerWidth="7" markerHeight="7" orient="auto-start-reverse">
      <path d="M0,0 L10,5 L0,10 z" fill="#3a7bd9"/>
    </marker>
  </defs>
  <rect width="720" height="360" fill="#ffffff"/>
  <text x="360.0" y="28" text-anchor="middle" font-size="14" fill="#222" font-weight="bold">g(W*, θ) — 训练好的代理模型曲线</text>
  <line x1="70.0" y1="55" x2="70.0" y2="305" stroke="#eeeeee" stroke-width="1"/>
  <line x1="131.0" y1="55" x2="131.0" y2="305" stroke="#eeeeee" stroke-width="1"/>
  <line x1="192.0" y1="55" x2="192.0" y2="305" stroke="#eeeeee" stroke-width="1"/>
  <line x1="253.0" y1="55" x2="253.0" y2="305" stroke="#eeeeee" stroke-width="1"/>
  <line x1="314.0" y1="55" x2="314.0" y2="305" stroke="#eeeeee" stroke-width="1"/>
  <line x1="375.0" y1="55" x2="375.0" y2="305" stroke="#eeeeee" stroke-width="1"/>
  <line x1="436.0" y1="55" x2="436.0" y2="305" stroke="#eeeeee" stroke-width="1"/>
  <line x1="497.0" y1="55" x2="497.0" y2="305" stroke="#eeeeee" stroke-width="1"/>
  <line x1="558.0" y1="55" x2="558.0" y2="305" stroke="#eeeeee" stroke-width="1"/>
  <line x1="619.0" y1="55" x2="619.0" y2="305" stroke="#eeeeee" stroke-width="1"/>
  <line x1="680.0" y1="55" x2="680.0" y2="305" stroke="#eeeeee" stroke-width="1"/>
  <line x1="70" y1="305" x2="680" y2="305" stroke="#666" stroke-width="1.5"/>
  <line x1="70" y1="55" x2="70" y2="305" stroke="#666" stroke-width="1.5"/>
  <line x1="70.0" y1="305" x2="70.0" y2="309" stroke="#666"/>
  <text x="70.0" y="323" text-anchor="middle" font-size="10" fill="#666">-5</text>
  <line x1="131.0" y1="305" x2="131.0" y2="309" stroke="#666"/>
  <text x="131.0" y="323" text-anchor="middle" font-size="10" fill="#666">-4</text>
  <line x1="192.0" y1="305" x2="192.0" y2="309" stroke="#666"/>
  <text x="192.0" y="323" text-anchor="middle" font-size="10" fill="#666">-3</text>
  <line x1="253.0" y1="305" x2="253.0" y2="309" stroke="#666"/>
  <text x="253.0" y="323" text-anchor="middle" font-size="10" fill="#666">-2</text>
  <line x1="314.0" y1="305" x2="314.0" y2="309" stroke="#666"/>
  <text x="314.0" y="323" text-anchor="middle" font-size="10" fill="#666">-1</text>
  <line x1="375.0" y1="305" x2="375.0" y2="309" stroke="#666"/>
  <text x="375.0" y="323" text-anchor="middle" font-size="10" fill="#666">0</text>
  <line x1="436.0" y1="305" x2="436.0" y2="309" stroke="#666"/>
  <text x="436.0" y="323" text-anchor="middle" font-size="10" fill="#666">1</text>
  <line x1="497.0" y1="305" x2="497.0" y2="309" stroke="#666"/>
  <text x="497.0" y="323" text-anchor="middle" font-size="10" fill="#666">2</text>
  <line x1="558.0" y1="305" x2="558.0" y2="309" stroke="#666"/>
  <text x="558.0" y="323" text-anchor="middle" font-size="10" fill="#666">3</text>
  <line x1="619.0" y1="305" x2="619.0" y2="309" stroke="#666"/>
  <text x="619.0" y="323" text-anchor="middle" font-size="10" fill="#666">4</text>
  <line x1="680.0" y1="305" x2="680.0" y2="309" stroke="#666"/>
  <text x="680.0" y="323" text-anchor="middle" font-size="10" fill="#666">5</text>
  <line x1="66" y1="210.9" x2="70" y2="210.9" stroke="#666"/>
  <text x="62" y="213.9" text-anchor="end" font-size="10" fill="#666">0</text>
  <text x="375.0" y="345" text-anchor="middle" font-size="13" fill="#333" font-weight="bold">θ (待调参数)</text>
  <text x="15" y="180.0" text-anchor="middle" font-size="13" fill="#333" font-weight="bold" transform="rotate(-90,15,180.0)">g(W*, θ)</text>
  <path d="M 70.0,208.0 L 73.1,207.7 L 76.1,207.3 L 79.2,206.8 L 82.3,206.3 L 85.3,205.8 L 88.4,205.2 L 91.5,204.5 L 94.5,203.8 L 97.6,203.1 L 100.7,202.2 L 103.7,201.3 L 106.8,200.3 L 109.8,199.3 L 112.9,198.2 L 116.0,197.0 L 119.0,195.7 L 122.1,194.3 L 125.2,192.9 L 128.2,191.3 L 131.3,189.7 L 134.4,188.0 L 137.4,186.2 L 140.5,184.3 L 143.6,182.4 L 146.6,180.3 L 149.7,178.2 L 152.8,176.0 L 155.8,173.8 L 158.9,171.5 L 162.0,169.2 L 165.0,166.8 L 168.1,164.3 L 171.2,161.9 L 174.2,159.4 L 177.3,157.0 L 180.4,154.5 L 183.4,152.1 L 186.5,149.7 L 189.5,147.4 L 192.6,145.1 L 195.7,142.9 L 198.7,140.8 L 201.8,138.9 L 204.9,137.0 L 207.9,135.3 L 211.0,133.7 L 214.1,132.3 L 217.1,131.1 L 220.2,130.0 L 223.3,129.2 L 226.3,128.6 L 229.4,128.2 L 232.5,128.0 L 235.5,128.0 L 238.6,128.3 L 241.7,128.8 L 244.7,129.6 L 247.8,130.6 L 250.9,131.8 L 253.9,133.3 L 257.0,135.0 L 260.1,136.9 L 263.1,139.0 L 266.2,141.4 L 269.2,143.9 L 272.3,146.6 L 275.4,149.5 L 278.4,152.5 L 281.5,155.6 L 284.6,158.9 L 287.6,162.3 L 290.7,165.7 L 293.8,169.3 L 296.8,172.9 L 299.9,176.5 L 303.0,180.1 L 306.0,183.8 L 309.1,187.5 L 312.2,191.1 L 315.2,194.7 L 318.3,198.2 L 321.4,201.7 L 324.4,205.1 L 327.5,208.5 L 330.6,211.7 L 333.6,214.9 L 336.7,217.9 L 339.7,220.8 L 342.8,223.6 L 345.9,226.3 L 348.9,228.8 L 352.0,231.2 L 355.1,233.4 L 358.1,235.5 L 361.2,237.5 L 364.3,239.2 L 367.3,240.8 L 370.4,242.3 L 373.5,243.5 L 376.5,244.6 L 379.6,245.5 L 382.7,246.2 L 385.7,246.7 L 388.8,247.0 L 391.9,247.1 L 394.9,246.9 L 398.0,246.6 L 401.1,246.0 L 404.1,245.2 L 407.2,244.2 L 410.3,243.0 L 413.3,241.5 L 416.4,239.8 L 419.4,237.8 L 422.5,235.6 L 425.6,233.2 L 428.6,230.6 L 431.7,227.7 L 434.8,224.6 L 437.8,221.4 L 440.9,217.9 L 444.0,214.3 L 447.0,210.5 L 450.1,206.5 L 453.2,202.4 L 456.2,198.2 L 459.3,193.9 L 462.4,189.6 L 465.4,185.1 L 468.5,180.7 L 471.6,176.2 L 474.6,171.7 L 477.7,167.3 L 480.8,162.9 L 483.8,158.6 L 486.9,154.4 L 489.9,150.3 L 493.0,146.4 L 496.1,142.6 L 499.1,138.9 L 502.2,135.5 L 505.3,132.3 L 508.3,129.3 L 511.4,126.5 L 514.5,124.0 L 517.5,121.7 L 520.6,119.7 L 523.7,117.9 L 526.7,116.4 L 529.8,115.2 L 532.9,114.2 L 535.9,113.5 L 539.0,113.1 L 542.1,112.9 L 545.1,113.0 L 548.2,113.3 L 551.3,113.9 L 554.3,114.7 L 557.4,115.7 L 560.5,116.8 L 563.5,118.2 L 566.6,119.8 L 569.6,121.5 L 572.7,123.4 L 575.8,125.4 L 578.8,127.6 L 581.9,129.8 L 585.0,132.2 L 588.0,134.6 L 591.1,137.1 L 594.2,139.7 L 597.2,142.3 L 600.3,144.9 L 603.4,147.6 L 606.4,150.2 L 609.5,152.9 L 612.6,155.5 L 615.6,158.1 L 618.7,160.7 L 621.8,163.3 L 624.8,165.7 L 627.9,168.2 L 631.0,170.6 L 634.0,172.9 L 637.1,175.1 L 640.2,177.3 L 643.2,179.4 L 646.3,181.4 L 649.3,183.4 L 652.4,185.3 L 655.5,187.0 L 658.5,188.7 L 661.6,190.3 L 664.7,191.9 L 667.7,193.3 L 670.8,194.7 L 673.9,196.0 L 676.9,197.2 L 680.0,198.3" fill="none" stroke="#3a7bd9" stroke-width="2.5" stroke-linejoin="round"/>
  <circle cx="542.1" cy="112.9" r="6" fill="#3a7bd9" stroke="white" stroke-width="2"/>
  <text x="554.1" y="102.9" font-size="11" fill="#3a7bd9" font-weight="bold">θ* ≈ 2.74</text>
  <text x="554.1" y="117.9" font-size="10" fill="#666">g(W*, θ*) ≈ 0.51</text>
</svg>
