<?xml version="1.0" encoding="UTF-8"?>
<svg xmlns="http://www.w3.org/2000/svg" viewBox="0 0 720 400" font-family="'Noto Sans CJK JP','PingFang SC','Microsoft YaHei',sans-serif">
  <defs>
    <marker id="arrow-blue" viewBox="0 0 10 10" refX="9" refY="5" markerWidth="7" markerHeight="7" orient="auto-start-reverse">
      <path d="M0,0 L10,5 L0,10 z" fill="#3a7bd9"/>
    </marker>
  </defs>
  <rect width="720" height="400" fill="#ffffff"/>
  <text x="360.0" y="28" text-anchor="middle" font-size="14" fill="#222" font-weight="bold">E_z[f(θ, z)] — 稀疏采样下的代理模型拟合</text>
  <line x1="70.0" y1="55" x2="70.0" y2="345" stroke="#eeeeee" stroke-width="1"/>
  <line x1="131.0" y1="55" x2="131.0" y2="345" stroke="#eeeeee" stroke-width="1"/>
  <line x1="192.0" y1="55" x2="192.0" y2="345" stroke="#eeeeee" stroke-width="1"/>
  <line x1="253.0" y1="55" x2="253.0" y2="345" stroke="#eeeeee" stroke-width="1"/>
  <line x1="314.0" y1="55" x2="314.0" y2="345" stroke="#eeeeee" stroke-width="1"/>
  <line x1="375.0" y1="55" x2="375.0" y2="345" stroke="#eeeeee" stroke-width="1"/>
  <line x1="436.0" y1="55" x2="436.0" y2="345" stroke="#eeeeee" stroke-width="1"/>
  <line x1="497.0" y1="55" x2="497.0" y2="345" stroke="#eeeeee" stroke-width="1"/>
  <line x1="558.0" y1="55" x2="558.0" y2="345" stroke="#eeeeee" stroke-width="1"/>
  <line x1="619.0" y1="55" x2="619.0" y2="345" stroke="#eeeeee" stroke-width="1"/>
  <line x1="680.0" y1="55" x2="680.0" y2="345" stroke="#eeeeee" stroke-width="1"/>
  <line x1="70" y1="345" x2="680" y2="345" stroke="#666" stroke-width="1.5"/>
  <line x1="70" y1="55" x2="70" y2="345" stroke="#666" stroke-width="1.5"/>
  <line x1="70.0" y1="345" x2="70.0" y2="349" stroke="#666"/>
  <text x="70.0" y="363" text-anchor="middle" font-size="10" fill="#666">-5</text>
  <line x1="131.0" y1="345" x2="131.0" y2="349" stroke="#666"/>
  <text x="131.0" y="363" text-anchor="middle" font-size="10" fill="#666">-4</text>
  <line x1="192.0" y1="345" x2="192.0" y2="349" stroke="#666"/>
  <text x="192.0" y="363" text-anchor="middle" font-size="10" fill="#666">-3</text>
  <line x1="253.0" y1="345" x2="253.0" y2="349" stroke="#666"/>
  <text x="253.0" y="363" text-anchor="middle" font-size="10" fill="#666">-2</text>
  <line x1="314.0" y1="345" x2="314.0" y2="349" stroke="#666"/>
  <text x="314.0" y="363" text-anchor="middle" font-size="10" fill="#666">-1</text>
  <line x1="375.0" y1="345" x2="375.0" y2="349" stroke="#666"/>
  <text x="375.0" y="363" text-anchor="middle" font-size="10" fill="#666">0</text>
  <line x1="436.0" y1="345" x2="436.0" y2="349" stroke="#666"/>
  <text x="436.0" y="363" text-anchor="middle" font-size="10" fill="#666">1</text>
  <line x1="497.0" y1="345" x2="497.0" y2="349" stroke="#666"/>
  <text x="497.0" y="363" text-anchor="middle" font-size="10" fill="#666">2</text>
  <line x1="558.0" y1="345" x2="558.0" y2="349" stroke="#666"/>
  <text x="558.0" y="363" text-anchor="middle" font-size="10" fill="#666">3</text>
  <line x1="619.0" y1="345" x2="619.0" y2="349" stroke="#666"/>
  <text x="619.0" y="363" text-anchor="middle" font-size="10" fill="#666">4</text>
  <line x1="680.0" y1="345" x2="680.0" y2="349" stroke="#666"/>
  <text x="680.0" y="363" text-anchor="middle" font-size="10" fill="#666">5</text>
  <line x1="66" y1="257.2" x2="70" y2="257.2" stroke="#666"/>
  <text x="62" y="260.2" text-anchor="end" font-size="10" fill="#666">-1</text>
  <line x1="66" y1="146.3" x2="70" y2="146.3" stroke="#666"/>
  <text x="62" y="149.3" text-anchor="end" font-size="10" fill="#666">0</text>
  <text x="375.0" y="385" text-anchor="middle" font-size="13" fill="#333" font-weight="bold">θ (待调参数)</text>
  <text x="15" y="200.0" text-anchor="middle" font-size="13" fill="#333" font-weight="bold" transform="rotate(-90,15,200.0)">E_z[f(θ, z)]</text>
  <path d="M 70.0,144.6 L 73.1,144.4 L 76.1,144.2 L 79.2,143.9 L 82.3,143.6 L 85.3,143.3 L 88.4,143.0 L 91.5,142.6 L 94.5,142.2 L 97.6,141.7 L 100.7,141.3 L 103.7,140.7 L 106.8,140.2 L 109.8,139.6 L 112.9,138.9 L 116.0,138.2 L 119.0,137.5 L 122.1,136.7 L 125.2,135.9 L 128.2,135.0 L 131.3,134.1 L 134.4,133.1 L 137.4,132.1 L 140.5,131.0 L 143.6,129.9 L 146.6,128.7 L 149.7,127.5 L 152.8,126.2 L 155.8,124.9 L 158.9,123.6 L 162.0,122.3 L 165.0,120.9 L 168.1,119.5 L 171.2,118.1 L 174.2,116.7 L 177.3,115.3 L 180.4,113.9 L 183.4,112.5 L 186.5,111.1 L 189.5,109.8 L 192.6,108.5 L 195.7,107.2 L 198.7,106.0 L 201.8,104.9 L 204.9,103.8 L 207.9,102.8 L 211.0,101.9 L 214.1,101.1 L 217.1,100.4 L 220.2,99.8 L 223.3,99.3 L 226.3,98.9 L 229.4,98.7 L 232.5,98.6 L 235.5,98.6 L 238.6,98.8 L 241.7,99.1 L 244.7,99.5 L 247.8,100.1 L 250.9,100.8 L 253.9,101.7 L 257.0,102.6 L 260.1,103.7 L 263.1,105.0 L 266.2,106.3 L 269.2,107.7 L 272.3,109.3 L 275.4,110.9 L 278.4,112.7 L 281.5,114.5 L 284.6,116.4 L 287.6,118.3 L 290.7,120.3 L 293.8,122.3 L 296.8,124.4 L 299.9,126.5 L 303.0,128.6 L 306.0,130.7 L 309.1,132.8 L 312.2,134.9 L 315.2,136.9 L 318.3,139.0 L 321.4,141.0 L 324.4,142.9 L 327.5,144.9 L 330.6,146.7 L 333.6,148.5 L 336.7,150.3 L 339.7,151.9 L 342.8,153.6 L 345.9,155.1 L 348.9,156.5 L 352.0,157.9 L 355.1,159.2 L 358.1,160.4 L 361.2,161.5 L 364.3,162.5 L 367.3,163.5 L 370.4,164.3 L 373.5,165.0 L 376.5,165.6 L 379.6,166.1 L 382.7,166.5 L 385.7,166.8 L 388.8,167.0 L 391.9,167.0 L 394.9,167.0 L 398.0,166.8 L 401.1,166.4 L 404.1,166.0 L 407.2,165.4 L 410.3,164.7 L 413.3,163.8 L 416.4,162.8 L 419.4,161.7 L 422.5,160.5 L 425.6,159.1 L 428.6,157.5 L 431.7,155.9 L 434.8,154.1 L 437.8,152.3 L 440.9,150.3 L 444.0,148.2 L 447.0,146.0 L 450.1,143.7 L 453.2,141.4 L 456.2,139.0 L 459.3,136.5 L 462.4,134.0 L 465.4,131.4 L 468.5,128.9 L 471.6,126.3 L 474.6,123.7 L 477.7,121.2 L 480.8,118.7 L 483.8,116.2 L 486.9,113.8 L 489.9,111.4 L 493.0,109.2 L 496.1,107.0 L 499.1,104.9 L 502.2,102.9 L 505.3,101.1 L 508.3,99.4 L 511.4,97.8 L 514.5,96.3 L 517.5,95.0 L 520.6,93.8 L 523.7,92.8 L 526.7,92.0 L 529.8,91.3 L 532.9,90.7 L 535.9,90.3 L 539.0,90.1 L 542.1,90.0 L 545.1,90.0 L 548.2,90.2 L 551.3,90.5 L 554.3,90.9 L 557.4,91.5 L 560.5,92.2 L 563.5,93.0 L 566.6,93.9 L 569.6,94.9 L 572.7,96.0 L 575.8,97.1 L 578.8,98.4 L 581.9,99.7 L 585.0,101.0 L 588.0,102.4 L 591.1,103.9 L 594.2,105.3 L 597.2,106.8 L 600.3,108.3 L 603.4,109.9 L 606.4,111.4 L 609.5,112.9 L 612.6,114.4 L 615.6,115.9 L 618.7,117.4 L 621.8,118.9 L 624.8,120.3 L 627.9,121.7 L 631.0,123.1 L 634.0,124.4 L 637.1,125.7 L 640.2,127.0 L 643.2,128.2 L 646.3,129.3 L 649.3,130.4 L 652.4,131.5 L 655.5,132.5 L 658.5,133.5 L 661.6,134.4 L 664.7,135.3 L 667.7,136.1 L 670.8,136.9 L 673.9,137.7 L 676.9,138.4 L 680.0,139.0" fill="none" stroke="#999" stroke-width="1.5" stroke-dasharray="5,3"/>
  <path d="M 70.0,199.1 L 73.1,196.3 L 76.1,193.6 L 79.2,190.7 L 82.3,187.8 L 85.3,184.9 L 88.4,181.9 L 91.5,179.0 L 94.5,176.0 L 97.6,173.0 L 100.7,170.0 L 103.7,167.0 L 106.8,164.1 L 109.8,161.1 L 112.9,158.2 L 116.0,155.4 L 119.0,152.6 L 122.1,149.8 L 125.2,147.1 L 128.2,144.4 L 131.3,141.8 L 134.4,139.3 L 137.4,136.8 L 140.5,134.4 L 143.6,132.1 L 146.6,129.9 L 149.7,127.7 L 152.8,125.7 L 155.8,123.7 L 158.9,121.8 L 162.0,120.0 L 165.0,118.3 L 168.1,116.7 L 171.2,115.2 L 174.2,113.8 L 177.3,112.5 L 180.4,111.3 L 183.4,110.2 L 186.5,109.2 L 189.5,108.3 L 192.6,107.5 L 195.7,106.8 L 198.7,106.2 L 201.8,105.7 L 204.9,105.3 L 207.9,104.9 L 211.0,104.7 L 214.1,104.6 L 217.1,104.5 L 220.2,104.6 L 223.3,104.7 L 226.3,105.0 L 229.4,105.3 L 232.5,105.7 L 235.5,106.2 L 238.6,106.7 L 241.7,107.3 L 244.7,108.0 L 247.8,108.8 L 250.9,109.6 L 253.9,110.5 L 257.0,111.5 L 260.1,112.5 L 263.1,113.6 L 266.2,114.7 L 269.2,115.9 L 272.3,117.1 L 275.4,118.4 L 278.4,119.7 L 281.5,121.0 L 284.6,122.4 L 287.6,123.8 L 290.7,125.2 L 293.8,126.6 L 296.8,128.1 L 299.9,129.6 L 303.0,131.1 L 306.0,132.5 L 309.1,134.0 L 312.2,135.5 L 315.2,137.0 L 318.3,138.5 L 321.4,139.9 L 324.4,141.4 L 327.5,142.8 L 330.6,144.2 L 333.6,145.5 L 336.7,146.9 L 339.7,148.2 L 342.8,149.5 L 345.9,150.7 L 348.9,151.9 L 352.0,153.0 L 355.1,154.1 L 358.1,155.1 L 361.2,156.1 L 364.3,157.0 L 367.3,157.9 L 370.4,158.7 L 373.5,159.4 L 376.5,160.1 L 379.6,160.6 L 382.7,161.1 L 385.7,161.6 L 388.8,161.9 L 391.9,162.2 L 394.9,162.4 L 398.0,162.5 L 401.1,162.5 L 404.1,162.4 L 407.2,162.3 L 410.3,162.0 L 413.3,161.7 L 416.4,161.3 L 419.4,160.8 L 422.5,160.1 L 425.6,159.4 L 428.6,158.7 L 431.7,157.8 L 434.8,156.8 L 437.8,155.7 L 440.9,154.6 L 444.0,153.3 L 447.0,152.0 L 450.1,150.6 L 453.2,149.1 L 456.2,147.5 L 459.3,145.8 L 462.4,144.0 L 465.4,142.2 L 468.5,140.3 L 471.6,138.4 L 474.6,136.3 L 477.7,134.2 L 480.8,132.1 L 483.8,129.9 L 486.9,127.6 L 489.9,125.3 L 493.0,123.0 L 496.1,120.6 L 499.1,118.2 L 502.2,115.8 L 505.3,113.3 L 508.3,110.9 L 511.4,108.4 L 514.5,105.9 L 517.5,103.5 L 520.6,101.1 L 523.7,98.7 L 526.7,96.3 L 529.8,94.0 L 532.9,91.7 L 535.9,89.5 L 539.0,87.4 L 542.1,85.3 L 545.1,83.4 L 548.2,81.5 L 551.3,79.8 L 554.3,78.2 L 557.4,76.8 L 560.5,75.5 L 563.5,74.3 L 566.6,73.4 L 569.6,72.6 L 572.7,72.1 L 575.8,71.7 L 578.8,71.6 L 581.9,71.8 L 585.0,72.2 L 588.0,73.0 L 591.1,74.0 L 594.2,75.3 L 597.2,77.0 L 600.3,79.0 L 603.4,81.5 L 606.4,84.3 L 609.5,87.5 L 612.6,91.1 L 615.6,95.2 L 618.7,99.8 L 621.8,104.9 L 624.8,110.5 L 627.9,116.6 L 631.0,123.4 L 634.0,130.7 L 637.1,138.6 L 640.2,147.1 L 643.2,156.3 L 646.3,166.2 L 649.3,176.8 L 652.4,188.2 L 655.5,200.3 L 658.5,213.2 L 661.6,226.9 L 664.7,241.5 L 667.7,257.0 L 670.8,273.4 L 673.9,290.7 L 676.9,309.0 L 680.0,328.4" fill="none" stroke="#3a7bd9" stroke-width="2.5" stroke-linejoin="round"/>
  <text x="192.0" y="340.0" text-anchor="middle" font-size="10" fill="#5d4d1a" font-weight="bold">密集采样区</text>
  <text x="487.0" y="155.6" text-anchor="middle" font-size="10" fill="#b85450" font-weight="bold">稀疏区 — 拟合偏差大</text>
  <circle cx="143.2" cy="131.8" r="5" fill="#222" stroke="white" stroke-width="1.5"/>
  <circle cx="167.6" cy="118.1" r="5" fill="#222" stroke="white" stroke-width="1.5"/>
  <circle cx="192.0" cy="108.2" r="5" fill="#222" stroke="white" stroke-width="1.5"/>
  <circle cx="216.4" cy="103.1" r="5" fill="#222" stroke="white" stroke-width="1.5"/>
  <circle cx="314.0" cy="137.1" r="5" fill="#222" stroke="white" stroke-width="1.5"/>
  <circle cx="411.6" cy="161.6" r="5" fill="#222" stroke="white" stroke-width="1.5"/>
  <circle cx="527.5" cy="95.8" r="5" fill="#222" stroke="white" stroke-width="1.5"/>
  <circle cx="631.2" cy="123.9" r="5" fill="#222" stroke="white" stroke-width="1.5"/>
  <line x1="100" y1="390" x2="130" y2="390" stroke="#999" stroke-width="1.5" stroke-dasharray="5,3"/>
  <text x="138" y="394" font-size="11" fill="#333">真实 E_z[f(θ, z)]</text>
  <line x1="280" y1="390" x2="310" y2="390" stroke="#3a7bd9" stroke-width="2.5"/>
  <text x="318" y="394" font-size="11" fill="#333">拟合 g(W*, θ)</text>
  <circle cx="475" cy="390" r="5" fill="#222" stroke="white" stroke-width="1.5"/>
  <text x="498" y="394" font-size="11" fill="#333">采样点 (8 个)</text>
</svg>
